<svg xmlns="http://www.w3.org/2000/svg" version="1.1" xmlns:xlink="http://www.w3.org/1999/xlink" xmlns:svgjs="http://svgjs.com/svgjs" width="1440" height="560" preserveAspectRatio="none" viewBox="0 0 1440 560"><g mask="url(&quot;#SvgjsMask1724&quot;)" fill="none"><rect width="1440" height="560" x="0" y="0" fill="url(#SvgjsLinearGradient1725)"></rect><path d="M1512 560L0 560 L0 349.02Q25.01 302.03, 72 327.05Q89.75 272.8, 144 290.54Q213.18 239.72, 264 308.89Q308.24 281.13, 336 325.36Q352.66 270.02, 408 286.69Q480.89 239.58, 528 312.47Q573.59 286.06, 600 331.64Q641.71 301.35, 672 343.06Q690.18 289.24, 744 307.42Q767.96 259.38, 816 283.35Q871.11 266.46, 888 321.56Q931.69 293.25, 960 336.95Q998.53 255.48, 1080 294.01Q1153.25 247.26, 1200 320.51Q1265.14 265.65, 1320 330.79Q1386.04 276.83, 1440 342.86Q1487.83 318.69, 1512 366.52z" fill="#182f5d"></path><path d="M1536 560L0 560 L0 437.5Q31.25 396.75, 72 428.01Q117.77 401.78, 144 447.56Q177.38 360.94, 264 394.31Q337.23 347.54, 384 420.77Q455.65 372.42, 504 444.08Q558.55 378.63, 624 433.17Q671.8 360.97, 744 408.77Q809.42 354.19, 864 419.61Q895.5 331.11, 984 362.6Q1034.78 341.38, 1056 392.15Q1111.84 375.99, 1128 431.82Q1130.99 362.81, 1200 365.8Q1257.56 351.36, 1272 408.92Q1298.54 363.46, 1344 389.99Q1361.35 335.34, 1416 352.68Q1489.19 305.88, 1536 379.07z" fill="#25467d"></path><path d="M1512 560L0 560 L0 506.33Q8.51 442.83, 72 451.34Q138.65 397.99, 192 464.64Q240.13 440.77, 264 488.91Q334.57 439.49, 384 510.06Q396.72 450.78, 456 463.5Q523.25 410.75, 576 478.01Q615.29 397.3, 696 436.59Q762.15 382.74, 816 448.89Q868.33 429.22, 888 481.55Q960.13 433.69, 1008 505.82Q1042.59 420.4, 1128 454.99Q1199.05 406.03, 1248 477.08Q1299.66 456.75, 1320 508.41Q1330.36 446.76, 1392 457.12Q1444.53 389.64, 1512 442.17z" fill="#356cb1"></path><path d="M1488 560L0 560 L0 528.27Q51.52 459.79, 120 511.32Q207.01 478.33, 240 565.34Q259.07 512.41, 312 531.49Q361.33 460.82, 432 510.14Q486.24 444.38, 552 498.61Q602.25 476.87, 624 527.12Q677.95 509.07, 696 563.01Q708.34 503.35, 768 515.69Q809.18 484.87, 840 526.05Q861.33 475.38, 912 496.7Q1000.12 464.81, 1032 552.93Q1052.6 501.53, 1104 522.13Q1133.73 479.87, 1176 509.6Q1252.73 466.33, 1296 543.06Q1369.38 496.43, 1416 569.81Q1421.29 503.1, 1488 508.39z" fill="white"></path></g><defs><mask id="SvgjsMask1724"><rect width="1440" height="560" fill="#ffffff"></rect></mask><linearGradient x1="84.72%" y1="-39.29%" x2="15.28%" y2="139.29%" gradientUnits="userSpaceOnUse" id="SvgjsLinearGradient1725"><stop stop-color="#0e2a47" offset="0"></stop><stop stop-color="rgba(85, 121, 168, 1)" offset="1"></stop></linearGradient></defs></svg>